<svg width="150" height="56" viewBox="0 0 150 56" fill="none" xmlns="http://www.w3.org/2000/svg">
<path fill-rule="evenodd" clip-rule="evenodd" d="M36.6787 17.6837H14.0265C13.9237 17.6837 13.5673 17.7645 13.4732 17.8053C5.15066 21.4016 0.861276 26.6037 0.174158 33.5751C-0.984646 43.3912 3.59917 50.5716 15.1309 55.0753H34.3657L34.4949 55.0091L43.9793 41.0143L43.9834 41.0079L46.0829 37.7915V34.6749L45.6513 34.3022H20.2011C19.9615 34.3124 19.7971 34.3646 19.6482 34.4481C19.4573 34.5547 19.3598 34.7032 19.2853 34.9784V39.9126C19.3791 40.5755 19.9252 40.8646 20.5144 40.8457H36.1878L36.2921 40.9474L31.2075 48.1659L30.9131 48.3239H15.3985C15.0806 48.3239 15.1245 48.3224 14.8504 48.1576C3.14184 41.119 4.14984 30.5571 15.2711 24.4165C15.3323 24.3829 15.606 24.2706 15.7677 24.2449C15.9144 24.2211 16.0591 24.2135 16.1234 24.2135L36.4837 24.1175C37.1156 24.0828 37.4819 23.7351 37.5525 23.6221C38.8297 21.58 38.5934 19.8493 37.3178 17.7849C37.2509 17.6761 36.8469 17.6844 36.6787 17.6837Z" fill="#F7A614"/>
<path fill-rule="evenodd" clip-rule="evenodd" d="M64.027 17.2051L42.2301 54.6111L49.0484 54.6002L52.6053 48.2532L70.3188 48.3348L66.9074 41.4126H56.9824L64.5108 28.6945L80.2654 54.8216L86.0186 54.7748L86.042 52.0853L64.027 17.2051Z" fill="#F7A614"/>
<path fill-rule="evenodd" clip-rule="evenodd" d="M88.8448 17.2297V55.0825H96.4731V17.2297H88.8448Z" fill="#F7A614"/>
<path fill-rule="evenodd" clip-rule="evenodd" d="M101.331 17.0101V55.0798H108.779V31.1917L137.21 55.0976H139.483V17.0283H132.035V40.2777L103.959 17.0101H101.331Z" fill="#F7A614"/>
<path fill-rule="evenodd" clip-rule="evenodd" d="M147.378 29.1904C143.044 26.1162 143.044 26.1162 143.044 26.1162C122.606 51.2723 103.552 58.0842 86.9949 45.9628C104.515 55.3565 121.567 47.3401 138.152 21.9137C135.705 19.824 134.482 18.779 134.482 18.779C143.711 15.7331 148.326 14.2099 148.326 14.2099C147.694 24.1969 147.378 29.1904 147.378 29.1904Z" fill="#131313" stroke="#FEFEFE" stroke-width="1.33342" stroke-miterlimit="22.9256"/>
<path d="M1.14819 11.8961V0.251704H3.62832V11.8961H1.14819ZM16.5309 0.251704V11.8961H13.7631L10.1034 6.46903C9.78895 5.99016 9.52552 5.57366 9.30971 5.22027C9.09427 4.86688 8.88148 4.46891 8.67777 4.0252V11.8961H6.19802V0.251704H8.92948L12.9158 6.21769C12.9638 6.2895 13.0715 6.45428 13.2393 6.71167C13.4067 6.96943 13.5598 7.21209 13.7004 7.43962C13.8383 7.66714 13.9551 7.88901 14.0507 8.10482V0.251704H16.5309ZM26.7738 0.251704H29.379V0.395337L25.1206 11.8961H22.2988L18.0223 0.395337V0.251704H20.7175L23.7543 9.32635L26.7738 0.251704ZM33.3505 9.81164H38.7416V11.8961H30.8708V0.251704H38.6517V2.31836H33.3505V4.94173H37.9328L37.6426 6.99023H33.3505V9.81164ZM44.4378 12.1474C42.6406 12.1474 41.1137 11.6802 39.8558 10.7463L41.0056 8.9673C42.1194 9.67407 43.2098 10.0274 44.2764 10.0274C44.959 10.0274 45.4953 9.91936 45.8846 9.70355C46.2739 9.48849 46.4685 9.16497 46.4685 8.73335C46.4685 8.46991 46.4054 8.25146 46.2799 8.07723C46.1541 7.90375 45.9322 7.7363 45.6147 7.57454C45.2976 7.41277 44.821 7.20605 44.186 6.95433L43.773 6.79256C43.0061 6.49322 42.3893 6.2056 41.9217 5.93008C41.4546 5.65493 41.0834 5.30116 40.8079 4.87029C40.5324 4.43867 40.3944 3.89328 40.3944 3.2345C40.3944 2.50392 40.6042 1.8958 41.0237 1.41051C41.4429 0.9256 41.9818 0.56918 42.6406 0.341652C43.2994 0.113747 44.0005 0 44.7435 0C45.4144 0 46.1061 0.111111 46.8189 0.332591C47.5317 0.554071 48.2112 0.880628 48.8583 1.31187L47.6965 3.07312C47.1273 2.7254 46.6212 2.47407 46.1779 2.31836C45.7379 2.16226 45.2613 2.08477 44.7496 2.08477C44.18 2.08477 43.7491 2.1804 43.4555 2.37202C43.1648 2.56364 43.0182 2.82104 43.0182 3.14494C43.0182 3.34866 43.0783 3.53121 43.1977 3.69297C43.3149 3.85436 43.5307 4.01649 43.8387 4.17787C44.1505 4.33964 44.5965 4.52863 45.1804 4.74406L45.5731 4.88768C46.3336 5.1753 46.9508 5.44515 47.4206 5.69649C47.8911 5.94821 48.2895 6.30765 48.61 6.7748C48.9301 7.24195 49.0919 7.84668 49.0919 8.58973C49.0919 9.36832 48.8885 10.0244 48.4811 10.5573C48.0737 11.0906 47.5196 11.4886 46.8189 11.7521C46.1178 12.0159 45.3244 12.1474 44.4378 12.1474ZM59.6402 0.251704V2.42569H55.9381V11.8961H53.4587V2.42569H49.7389V0.251704H59.6402ZM61.2211 11.8961V0.251704H63.7013V11.8961H61.2211ZM76.6038 0.251704V11.8961H73.8361L70.1764 6.46903C69.8619 5.99016 69.5985 5.57366 69.3827 5.22027C69.1672 4.86688 68.9544 4.46891 68.7507 4.0252V11.8961H66.271V0.251704H69.0024L72.9887 6.21769C73.0367 6.2895 73.1444 6.45428 73.3122 6.71167C73.4797 6.96943 73.6324 7.21209 73.7733 7.43962C73.9113 7.66714 74.0277 7.88901 74.1237 8.10482V0.251704H76.6038Z" fill="#F7A614"/>
</svg>
